<svg id="Japan" xmlns="http://www.w3.org/2000/svg" width="100" height="68" viewBox="0 16 100 68">
<defs>
    <style>
      .cls-1 {
        fill: #e2e2e2;
      }

      .cls-2 {
        fill: #be0026;
      }

      .cls-3 {
        fill: #be0026;
      }
    </style>
  </defs>
  <g id="country_japan">
    <rect class="cls-1" y="16" width="100" height="68"/>
    <path class="cls-2" d="M44.9,46.625L79.278,15.994H66.406L42.987,44.813l14.075-28.82H49.019L40.505,43.857l2.016-27.863H35.883l1.958,27.9-8.875-27.9H21.5l13.9,28.939L11.958,15.994,1,16H0L33.538,46.805,0,29.007v9.475L32.555,49.227,0,46v8l32.6-2.17L0,62.1v9.446L33.661,54.221,0,83v1l11.716,0.01L35.575,56.034,21.071,84.01h8l8.982-27.02L36.03,84.01h6.28L40.722,56.949,48.964,84.01h8.049L43.17,55.912l23.881,28.1H79.819L45.025,54.041,100,84l0-14.073-54-18.308L100,56l0-11.8L45.963,49.015l54.042-17.25L100,16Z"/>
    <circle class="cls-3" cx="39" cy="50" r="16"/>
  </g>
</svg>
